{
	"asset":
	{
		"version": "2.0",
		"generator": "Unreal Engine 5.4.4"
	},
	"scene": 0,
	"accessors": [
		{
			"bufferView": 0,
			"count": 2796,
			"type": "SCALAR",
			"componentType": 5123
		},
		{
			"bufferView": 1,
			"count": 1638,
			"type": "VEC3",
			"componentType": 5126,
			"min": [ -1.70743012, 1.10134256, -7.34426212 ],
			"max": [ 1.70743012, 3.9792037, 7.34426212 ]
		},
		{
			"bufferView": 2,
			"count": 1638,
			"type": "VEC3",
			"componentType": 5126
		},
		{
			"bufferView": 3,
			"count": 1638,
			"type": "VEC4",
			"componentType": 5126
		},
		{
			"bufferView": 4,
			"count": 1638,
			"type": "VEC2",
			"componentType": 5126
		},
		{
			"bufferView": 5,
			"count": 1638,
			"type": "VEC2",
			"componentType": 5126
		},
		{
			"bufferView": 6,
			"count": 43542,
			"type": "SCALAR",
			"componentType": 5123
		},
		{
			"bufferView": 7,
			"count": 17717,
			"type": "VEC3",
			"componentType": 5126,
			"min": [ -1.75807297, -0.0518207103, -8.31482983 ],
			"max": [ 1.71066296, 3.91743159, 8.31482983 ]
		},
		{
			"bufferView": 8,
			"count": 17717,
			"type": "VEC3",
			"componentType": 5126
		},
		{
			"bufferView": 9,
			"count": 17717,
			"type": "VEC4",
			"componentType": 5126
		},
		{
			"bufferView": 10,
			"count": 17717,
			"type": "VEC2",
			"componentType": 5126
		},
		{
			"bufferView": 11,
			"count": 17717,
			"type": "VEC2",
			"componentType": 5126
		}
	],
	"buffers": [
		{
			"uri": "SM_car4.bin",
			"byteLength": 1176556
		}
	],
	"bufferViews": [
		{
			"buffer": 0,
			"byteLength": 5592,
			"target": 34963
		},
		{
			"buffer": 0,
			"byteLength": 19656,
			"byteOffset": 5592,
			"target": 34962
		},
		{
			"buffer": 0,
			"byteLength": 19656,
			"byteOffset": 25248,
			"target": 34962
		},
		{
			"buffer": 0,
			"byteLength": 26208,
			"byteOffset": 44904,
			"target": 34962
		},
		{
			"buffer": 0,
			"byteLength": 13104,
			"byteOffset": 71112,
			"target": 34962
		},
		{
			"buffer": 0,
			"byteLength": 13104,
			"byteOffset": 84216,
			"target": 34962
		},
		{
			"buffer": 0,
			"byteLength": 87084,
			"byteOffset": 97320,
			"target": 34963
		},
		{
			"buffer": 0,
			"byteLength": 212604,
			"byteOffset": 184404,
			"target": 34962
		},
		{
			"buffer": 0,
			"byteLength": 212604,
			"byteOffset": 397008,
			"target": 34962
		},
		{
			"buffer": 0,
			"byteLength": 283472,
			"byteOffset": 609612,
			"target": 34962
		},
		{
			"buffer": 0,
			"byteLength": 141736,
			"byteOffset": 893084,
			"target": 34962
		},
		{
			"buffer": 0,
			"byteLength": 141736,
			"byteOffset": 1034820,
			"target": 34962
		}
	],
	"images": [
		{
			"uri": "MI_car4_MetallicRoughness.png"
		},
		{
			"uri": "MI_car4_Occlusion.png"
		},
		{
			"uri": "MI_wheels_MetallicRoughness.png"
		},
		{
			"uri": "MI_wheels_Occlusion.png"
		},
		{
			"uri": "T_car4_D.png"
		},
		{
			"uri": "T_car4_N.png"
		},
		{
			"uri": "T_wheel_D.png"
		},
		{
			"uri": "T_wheel_N.png"
		}
	],
	"materials": [
		{
			"name": "MI_car4",
			"pbrMetallicRoughness":
			{
				"baseColorTexture":
				{
					"index": 0
				},
				"metallicRoughnessTexture":
				{
					"index": 1
				}
			},
			"normalTexture":
			{
				"index": 2
			},
			"occlusionTexture":
			{
				"index": 3
			}
		},
		{
			"name": "MI_wheels",
			"pbrMetallicRoughness":
			{
				"baseColorTexture":
				{
					"index": 4
				},
				"metallicRoughnessTexture":
				{
					"index": 5
				}
			},
			"normalTexture":
			{
				"index": 6
			},
			"occlusionTexture":
			{
				"index": 7
			}
		}
	],
	"meshes": [
		{
			"name": "SM_car4",
			"primitives": [
				{
					"attributes":
					{
						"POSITION": 1,
						"NORMAL": 2,
						"TANGENT": 3,
						"TEXCOORD_0": 4,
						"TEXCOORD_1": 5
					},
					"indices": 0,
					"material": 0
				},
				{
					"attributes":
					{
						"POSITION": 7,
						"NORMAL": 8,
						"TANGENT": 9,
						"TEXCOORD_0": 10,
						"TEXCOORD_1": 11
					},
					"indices": 6,
					"material": 1
				}
			]
		}
	],
	"nodes": [
		{
			"mesh": 0
		}
	],
	"samplers": [
		{
			"minFilter": 9987,
			"magFilter": 9729
		}
	],
	"scenes": [
		{
			"nodes": [ 0 ]
		}
	],
	"textures": [
		{
			"name": "T_car4_D",
			"sampler": 0,
			"source": 4
		},
		{
			"name": "MI_car4_MetallicRoughness",
			"sampler": 0,
			"source": 0
		},
		{
			"name": "T_car4_N",
			"sampler": 0,
			"source": 5
		},
		{
			"name": "MI_car4_Occlusion",
			"sampler": 0,
			"source": 1
		},
		{
			"name": "T_wheel_D",
			"sampler": 0,
			"source": 6
		},
		{
			"name": "MI_wheels_MetallicRoughness",
			"sampler": 0,
			"source": 2
		},
		{
			"name": "T_wheel_N",
			"sampler": 0,
			"source": 7
		},
		{
			"name": "MI_wheels_Occlusion",
			"sampler": 0,
			"source": 3
		}
	]
}