{
	"asset":
	{
		"version": "2.0",
		"generator": "Unreal Engine 5.4.4"
	},
	"scene": 0,
	"accessors": [
		{
			"bufferView": 0,
			"count": 48888,
			"type": "SCALAR",
			"componentType": 5123
		},
		{
			"bufferView": 1,
			"count": 19488,
			"type": "VEC3",
			"componentType": 5126,
			"min": [ -1.60120714, -0.0518207103, -9.51007271 ],
			"max": [ 1.94269907, 1.30585444, 8.31940365 ]
		},
		{
			"bufferView": 2,
			"count": 19488,
			"type": "VEC3",
			"componentType": 5126
		},
		{
			"bufferView": 3,
			"count": 19488,
			"type": "VEC4",
			"componentType": 5126
		},
		{
			"bufferView": 4,
			"count": 19488,
			"type": "VEC2",
			"componentType": 5126
		},
		{
			"bufferView": 5,
			"count": 19488,
			"type": "VEC2",
			"componentType": 5126
		},
		{
			"bufferView": 6,
			"count": 7884,
			"type": "SCALAR",
			"componentType": 5123
		},
		{
			"bufferView": 7,
			"count": 3001,
			"type": "VEC3",
			"componentType": 5126,
			"min": [ -1.91267335, 0.539711416, -8.58047009 ],
			"max": [ 1.91267335, 2.45004392, 7.38980007 ]
		},
		{
			"bufferView": 8,
			"count": 3001,
			"type": "VEC3",
			"componentType": 5126
		},
		{
			"bufferView": 9,
			"count": 3001,
			"type": "VEC4",
			"componentType": 5126
		},
		{
			"bufferView": 10,
			"count": 3001,
			"type": "VEC2",
			"componentType": 5126
		},
		{
			"bufferView": 11,
			"count": 3001,
			"type": "VEC2",
			"componentType": 5126
		}
	],
	"buffers": [
		{
			"uri": "SM_car2.bin",
			"byteLength": 1372928
		}
	],
	"bufferViews": [
		{
			"buffer": 0,
			"byteLength": 97776,
			"target": 34963
		},
		{
			"buffer": 0,
			"byteLength": 233856,
			"byteOffset": 97776,
			"target": 34962
		},
		{
			"buffer": 0,
			"byteLength": 233856,
			"byteOffset": 331632,
			"target": 34962
		},
		{
			"buffer": 0,
			"byteLength": 311808,
			"byteOffset": 565488,
			"target": 34962
		},
		{
			"buffer": 0,
			"byteLength": 155904,
			"byteOffset": 877296,
			"target": 34962
		},
		{
			"buffer": 0,
			"byteLength": 155904,
			"byteOffset": 1033200,
			"target": 34962
		},
		{
			"buffer": 0,
			"byteLength": 15768,
			"byteOffset": 1189104,
			"target": 34963
		},
		{
			"buffer": 0,
			"byteLength": 36012,
			"byteOffset": 1204872,
			"target": 34962
		},
		{
			"buffer": 0,
			"byteLength": 36012,
			"byteOffset": 1240884,
			"target": 34962
		},
		{
			"buffer": 0,
			"byteLength": 48016,
			"byteOffset": 1276896,
			"target": 34962
		},
		{
			"buffer": 0,
			"byteLength": 24008,
			"byteOffset": 1324912,
			"target": 34962
		},
		{
			"buffer": 0,
			"byteLength": 24008,
			"byteOffset": 1348920,
			"target": 34962
		}
	],
	"images": [
		{
			"uri": "MI_wheels_MetallicRoughness.png"
		},
		{
			"uri": "MI_wheels_Occlusion.png"
		},
		{
			"uri": "MI_car2_MetallicRoughness.png"
		},
		{
			"uri": "MI_car2_Occlusion.png"
		},
		{
			"uri": "T_wheel_D.png"
		},
		{
			"uri": "T_wheel_N.png"
		},
		{
			"uri": "T_car2_D.png"
		},
		{
			"uri": "T_car2_N.png"
		}
	],
	"materials": [
		{
			"name": "MI_wheels",
			"pbrMetallicRoughness":
			{
				"baseColorTexture":
				{
					"index": 0
				},
				"metallicRoughnessTexture":
				{
					"index": 1
				}
			},
			"normalTexture":
			{
				"index": 2
			},
			"occlusionTexture":
			{
				"index": 3
			}
		},
		{
			"name": "MI_car2",
			"pbrMetallicRoughness":
			{
				"baseColorTexture":
				{
					"index": 4
				},
				"metallicRoughnessTexture":
				{
					"index": 5
				}
			},
			"normalTexture":
			{
				"index": 6
			},
			"occlusionTexture":
			{
				"index": 7
			}
		}
	],
	"meshes": [
		{
			"name": "SM_car2",
			"primitives": [
				{
					"attributes":
					{
						"POSITION": 1,
						"NORMAL": 2,
						"TANGENT": 3,
						"TEXCOORD_0": 4,
						"TEXCOORD_1": 5
					},
					"indices": 0,
					"material": 0
				},
				{
					"attributes":
					{
						"POSITION": 7,
						"NORMAL": 8,
						"TANGENT": 9,
						"TEXCOORD_0": 10,
						"TEXCOORD_1": 11
					},
					"indices": 6,
					"material": 1
				}
			]
		}
	],
	"nodes": [
		{
			"mesh": 0
		}
	],
	"samplers": [
		{
			"minFilter": 9987,
			"magFilter": 9729
		}
	],
	"scenes": [
		{
			"nodes": [ 0 ]
		}
	],
	"textures": [
		{
			"name": "T_wheel_D",
			"sampler": 0,
			"source": 4
		},
		{
			"name": "MI_wheels_MetallicRoughness",
			"sampler": 0,
			"source": 0
		},
		{
			"name": "T_wheel_N",
			"sampler": 0,
			"source": 5
		},
		{
			"name": "MI_wheels_Occlusion",
			"sampler": 0,
			"source": 1
		},
		{
			"name": "T_car2_D",
			"sampler": 0,
			"source": 6
		},
		{
			"name": "MI_car2_MetallicRoughness",
			"sampler": 0,
			"source": 2
		},
		{
			"name": "T_car2_N",
			"sampler": 0,
			"source": 7
		},
		{
			"name": "MI_car2_Occlusion",
			"sampler": 0,
			"source": 3
		}
	]
}