{
	"asset":
	{
		"version": "2.0",
		"generator": "Unreal Engine 5.4.4"
	},
	"scene": 0,
	"accessors": [
		{
			"bufferView": 0,
			"count": 3858,
			"type": "SCALAR",
			"componentType": 5123
		},
		{
			"bufferView": 1,
			"count": 1714,
			"type": "VEC3",
			"componentType": 5126,
			"min": [ -1.67774653, 0.0518741757, -6.12147379 ],
			"max": [ 1.67774653, 4.07733202, 6.09577799 ]
		},
		{
			"bufferView": 2,
			"count": 1714,
			"type": "VEC3",
			"componentType": 5126
		},
		{
			"bufferView": 3,
			"count": 1714,
			"type": "VEC4",
			"componentType": 5126
		},
		{
			"bufferView": 4,
			"count": 1714,
			"type": "VEC2",
			"componentType": 5126
		},
		{
			"bufferView": 5,
			"count": 1714,
			"type": "VEC2",
			"componentType": 5126
		}
	],
	"buffers": [
		{
			"uri": "SM_container.bin",
			"byteLength": 103700
		}
	],
	"bufferViews": [
		{
			"buffer": 0,
			"byteLength": 7716,
			"target": 34963
		},
		{
			"buffer": 0,
			"byteLength": 20568,
			"byteOffset": 7716,
			"target": 34962
		},
		{
			"buffer": 0,
			"byteLength": 20568,
			"byteOffset": 28284,
			"target": 34962
		},
		{
			"buffer": 0,
			"byteLength": 27424,
			"byteOffset": 48852,
			"target": 34962
		},
		{
			"buffer": 0,
			"byteLength": 13712,
			"byteOffset": 76276,
			"target": 34962
		},
		{
			"buffer": 0,
			"byteLength": 13712,
			"byteOffset": 89988,
			"target": 34962
		}
	],
	"images": [
		{
			"uri": "M_container_BaseColor.png"
		},
		{
			"uri": "M_container_MetallicRoughness.png"
		},
		{
			"uri": "T_container_N.png"
		}
	],
	"materials": [
		{
			"name": "M_container",
			"pbrMetallicRoughness":
			{
				"baseColorTexture":
				{
					"index": 0
				},
				"metallicRoughnessTexture":
				{
					"index": 1
				}
			},
			"normalTexture":
			{
				"index": 2
			}
		}
	],
	"meshes": [
		{
			"name": "SM_container",
			"primitives": [
				{
					"attributes":
					{
						"POSITION": 1,
						"NORMAL": 2,
						"TANGENT": 3,
						"TEXCOORD_0": 4,
						"TEXCOORD_1": 5
					},
					"indices": 0,
					"material": 0
				}
			]
		}
	],
	"nodes": [
		{
			"mesh": 0
		}
	],
	"samplers": [
		{
			"minFilter": 9987,
			"magFilter": 9729
		}
	],
	"scenes": [
		{
			"nodes": [ 0 ]
		}
	],
	"textures": [
		{
			"name": "M_container_BaseColor",
			"sampler": 0,
			"source": 0
		},
		{
			"name": "M_container_MetallicRoughness",
			"sampler": 0,
			"source": 1
		},
		{
			"name": "T_container_N",
			"sampler": 0,
			"source": 2
		}
	]
}