{
	"asset":
	{
		"version": "2.0",
		"generator": "Unreal Engine 5.4.4"
	},
	"scene": 0,
	"accessors": [
		{
			"bufferView": 0,
			"count": 93870,
			"type": "SCALAR",
			"componentType": 5125
		},
		{
			"bufferView": 1,
			"count": 87034,
			"type": "VEC3",
			"componentType": 5126,
			"min": [ -1.73666871, 0.0278309006, -12.088645 ],
			"max": [ 1.73666871, 1.83984947, 11.9729805 ]
		},
		{
			"bufferView": 2,
			"count": 87034,
			"type": "VEC3",
			"componentType": 5126
		},
		{
			"bufferView": 3,
			"count": 87034,
			"type": "VEC4",
			"componentType": 5126
		},
		{
			"bufferView": 4,
			"count": 87034,
			"type": "VEC2",
			"componentType": 5126
		},
		{
			"bufferView": 5,
			"count": 87034,
			"type": "VEC2",
			"componentType": 5126
		},
		{
			"bufferView": 6,
			"count": 35478,
			"type": "SCALAR",
			"componentType": 5123
		},
		{
			"bufferView": 7,
			"count": 33720,
			"type": "VEC3",
			"componentType": 5126,
			"min": [ -1.72275662, 0.446289092, -11.9328051 ],
			"max": [ 1.72275662, 5.26525736, 11.8516102 ]
		},
		{
			"bufferView": 8,
			"count": 33720,
			"type": "VEC3",
			"componentType": 5126
		},
		{
			"bufferView": 9,
			"count": 33720,
			"type": "VEC4",
			"componentType": 5126
		},
		{
			"bufferView": 10,
			"count": 33720,
			"type": "VEC2",
			"componentType": 5126
		},
		{
			"bufferView": 11,
			"count": 33720,
			"type": "VEC2",
			"componentType": 5126
		}
	],
	"buffers": [
		{
			"uri": "SM_locomotive.bin",
			"byteLength": 7208660
		}
	],
	"bufferViews": [
		{
			"buffer": 0,
			"byteLength": 375480,
			"target": 34963
		},
		{
			"buffer": 0,
			"byteLength": 1044408,
			"byteOffset": 375480,
			"target": 34962
		},
		{
			"buffer": 0,
			"byteLength": 1044408,
			"byteOffset": 1419888,
			"target": 34962
		},
		{
			"buffer": 0,
			"byteLength": 1392544,
			"byteOffset": 2464296,
			"target": 34962
		},
		{
			"buffer": 0,
			"byteLength": 696272,
			"byteOffset": 3856840,
			"target": 34962
		},
		{
			"buffer": 0,
			"byteLength": 696272,
			"byteOffset": 4553112,
			"target": 34962
		},
		{
			"buffer": 0,
			"byteLength": 70956,
			"byteOffset": 5249384,
			"target": 34963
		},
		{
			"buffer": 0,
			"byteLength": 404640,
			"byteOffset": 5320340,
			"target": 34962
		},
		{
			"buffer": 0,
			"byteLength": 404640,
			"byteOffset": 5724980,
			"target": 34962
		},
		{
			"buffer": 0,
			"byteLength": 539520,
			"byteOffset": 6129620,
			"target": 34962
		},
		{
			"buffer": 0,
			"byteLength": 269760,
			"byteOffset": 6669140,
			"target": 34962
		},
		{
			"buffer": 0,
			"byteLength": 269760,
			"byteOffset": 6938900,
			"target": 34962
		}
	],
	"images": [
		{
			"uri": "MI_engine_bottom_MetallicRoughness.png"
		},
		{
			"uri": "MI_engine_bottom_Occlusion.png"
		},
		{
			"uri": "M_body_MetallicRoughness.png"
		},
		{
			"uri": "M_body_Occlusion.png"
		},
		{
			"uri": "T_enginebottom_D.png"
		},
		{
			"uri": "T_enginebottom_N.png"
		},
		{
			"uri": "T_enginetop_D.png"
		},
		{
			"uri": "T_enginetop_N.png"
		}
	],
	"materials": [
		{
			"name": "MI_engine_bottom",
			"pbrMetallicRoughness":
			{
				"baseColorTexture":
				{
					"index": 0
				},
				"metallicRoughnessTexture":
				{
					"index": 1
				}
			},
			"normalTexture":
			{
				"index": 2
			},
			"occlusionTexture":
			{
				"index": 3
			}
		},
		{
			"name": "M_body",
			"pbrMetallicRoughness":
			{
				"baseColorTexture":
				{
					"index": 4
				},
				"metallicRoughnessTexture":
				{
					"index": 5
				}
			},
			"normalTexture":
			{
				"index": 6
			},
			"occlusionTexture":
			{
				"index": 7
			}
		}
	],
	"meshes": [
		{
			"name": "SM_locomotive",
			"primitives": [
				{
					"attributes":
					{
						"POSITION": 1,
						"NORMAL": 2,
						"TANGENT": 3,
						"TEXCOORD_0": 4,
						"TEXCOORD_1": 5
					},
					"indices": 0,
					"material": 0
				},
				{
					"attributes":
					{
						"POSITION": 7,
						"NORMAL": 8,
						"TANGENT": 9,
						"TEXCOORD_0": 10,
						"TEXCOORD_1": 11
					},
					"indices": 6,
					"material": 1
				}
			]
		}
	],
	"nodes": [
		{
			"mesh": 0
		}
	],
	"samplers": [
		{
			"minFilter": 9987,
			"magFilter": 9729
		}
	],
	"scenes": [
		{
			"nodes": [ 0 ]
		}
	],
	"textures": [
		{
			"name": "T_enginebottom_D",
			"sampler": 0,
			"source": 4
		},
		{
			"name": "MI_engine_bottom_MetallicRoughness",
			"sampler": 0,
			"source": 0
		},
		{
			"name": "T_enginebottom_N",
			"sampler": 0,
			"source": 5
		},
		{
			"name": "MI_engine_bottom_Occlusion",
			"sampler": 0,
			"source": 1
		},
		{
			"name": "T_enginetop_D",
			"sampler": 0,
			"source": 6
		},
		{
			"name": "M_body_MetallicRoughness",
			"sampler": 0,
			"source": 2
		},
		{
			"name": "T_enginetop_N",
			"sampler": 0,
			"source": 7
		},
		{
			"name": "M_body_Occlusion",
			"sampler": 0,
			"source": 3
		}
	]
}