{
	"asset":
	{
		"version": "2.0",
		"generator": "Unreal Engine 5.4.4"
	},
	"scene": 0,
	"accessors": [
		{
			"bufferView": 0,
			"count": 9558,
			"type": "SCALAR",
			"componentType": 5123
		},
		{
			"bufferView": 1,
			"count": 3631,
			"type": "VEC3",
			"componentType": 5126,
			"min": [ -1.55493081, 0.769416153, -7.81133032 ],
			"max": [ 1.55493236, 5.10385084, 7.81188774 ]
		},
		{
			"bufferView": 2,
			"count": 3631,
			"type": "VEC3",
			"componentType": 5126
		},
		{
			"bufferView": 3,
			"count": 3631,
			"type": "VEC4",
			"componentType": 5126
		},
		{
			"bufferView": 4,
			"count": 3631,
			"type": "VEC2",
			"componentType": 5126
		},
		{
			"bufferView": 5,
			"count": 3631,
			"type": "VEC2",
			"componentType": 5126
		},
		{
			"bufferView": 6,
			"count": 48888,
			"type": "SCALAR",
			"componentType": 5123
		},
		{
			"bufferView": 7,
			"count": 19540,
			"type": "VEC3",
			"componentType": 5126,
			"min": [ -1.44499707, -0.0518207103, -8.59182549 ],
			"max": [ 1.58304441, 1.31172228, 8.59182549 ]
		},
		{
			"bufferView": 8,
			"count": 19540,
			"type": "VEC3",
			"componentType": 5126
		},
		{
			"bufferView": 9,
			"count": 19540,
			"type": "VEC4",
			"componentType": 5126
		},
		{
			"bufferView": 10,
			"count": 19540,
			"type": "VEC2",
			"componentType": 5126
		},
		{
			"bufferView": 11,
			"count": 19540,
			"type": "VEC2",
			"componentType": 5126
		}
	],
	"buffers": [
		{
			"uri": "SM_car3.bin",
			"byteLength": 1414468
		}
	],
	"bufferViews": [
		{
			"buffer": 0,
			"byteLength": 19116,
			"target": 34963
		},
		{
			"buffer": 0,
			"byteLength": 43572,
			"byteOffset": 19116,
			"target": 34962
		},
		{
			"buffer": 0,
			"byteLength": 43572,
			"byteOffset": 62688,
			"target": 34962
		},
		{
			"buffer": 0,
			"byteLength": 58096,
			"byteOffset": 106260,
			"target": 34962
		},
		{
			"buffer": 0,
			"byteLength": 29048,
			"byteOffset": 164356,
			"target": 34962
		},
		{
			"buffer": 0,
			"byteLength": 29048,
			"byteOffset": 193404,
			"target": 34962
		},
		{
			"buffer": 0,
			"byteLength": 97776,
			"byteOffset": 222452,
			"target": 34963
		},
		{
			"buffer": 0,
			"byteLength": 234480,
			"byteOffset": 320228,
			"target": 34962
		},
		{
			"buffer": 0,
			"byteLength": 234480,
			"byteOffset": 554708,
			"target": 34962
		},
		{
			"buffer": 0,
			"byteLength": 312640,
			"byteOffset": 789188,
			"target": 34962
		},
		{
			"buffer": 0,
			"byteLength": 156320,
			"byteOffset": 1101828,
			"target": 34962
		},
		{
			"buffer": 0,
			"byteLength": 156320,
			"byteOffset": 1258148,
			"target": 34962
		}
	],
	"images": [
		{
			"uri": "MI_car3_MetallicRoughness.png"
		},
		{
			"uri": "MI_car3_Occlusion.png"
		},
		{
			"uri": "MI_wheels_MetallicRoughness.png"
		},
		{
			"uri": "MI_wheels_Occlusion.png"
		},
		{
			"uri": "T_car3_D.png"
		},
		{
			"uri": "T_car3_N.png"
		},
		{
			"uri": "T_wheel_D.png"
		},
		{
			"uri": "T_wheel_N.png"
		}
	],
	"materials": [
		{
			"name": "MI_car3",
			"pbrMetallicRoughness":
			{
				"baseColorTexture":
				{
					"index": 0
				},
				"metallicRoughnessTexture":
				{
					"index": 1
				}
			},
			"normalTexture":
			{
				"index": 2
			},
			"occlusionTexture":
			{
				"index": 3
			}
		},
		{
			"name": "MI_wheels",
			"pbrMetallicRoughness":
			{
				"baseColorTexture":
				{
					"index": 4
				},
				"metallicRoughnessTexture":
				{
					"index": 5
				}
			},
			"normalTexture":
			{
				"index": 6
			},
			"occlusionTexture":
			{
				"index": 7
			}
		}
	],
	"meshes": [
		{
			"name": "SM_car3",
			"primitives": [
				{
					"attributes":
					{
						"POSITION": 1,
						"NORMAL": 2,
						"TANGENT": 3,
						"TEXCOORD_0": 4,
						"TEXCOORD_1": 5
					},
					"indices": 0,
					"material": 0
				},
				{
					"attributes":
					{
						"POSITION": 7,
						"NORMAL": 8,
						"TANGENT": 9,
						"TEXCOORD_0": 10,
						"TEXCOORD_1": 11
					},
					"indices": 6,
					"material": 1
				}
			]
		}
	],
	"nodes": [
		{
			"mesh": 0
		}
	],
	"samplers": [
		{
			"minFilter": 9987,
			"magFilter": 9729
		}
	],
	"scenes": [
		{
			"nodes": [ 0 ]
		}
	],
	"textures": [
		{
			"name": "T_car3_D",
			"sampler": 0,
			"source": 4
		},
		{
			"name": "MI_car3_MetallicRoughness",
			"sampler": 0,
			"source": 0
		},
		{
			"name": "T_car3_N",
			"sampler": 0,
			"source": 5
		},
		{
			"name": "MI_car3_Occlusion",
			"sampler": 0,
			"source": 1
		},
		{
			"name": "T_wheel_D",
			"sampler": 0,
			"source": 6
		},
		{
			"name": "MI_wheels_MetallicRoughness",
			"sampler": 0,
			"source": 2
		},
		{
			"name": "T_wheel_N",
			"sampler": 0,
			"source": 7
		},
		{
			"name": "MI_wheels_Occlusion",
			"sampler": 0,
			"source": 3
		}
	]
}