{
	"asset":{
		"copyright":"Simpro Titans Studio",
		"generator":"Khronos glTF Blender I/O v5.0.21",
		"version":"2.0"
	},
	"scene":0,
	"scenes":[
		{
			"extras":{
				"assets used":{
					"a42a167a-dd00-4e75-b666-d26fa1addbad":{
						"access":"free",
						"accessLabel":"Free",
						"addonVersion":"2.93.0",
						"assetBaseId":"a42a167a-dd00-4e75-b666-d26fa1addbad",
						"assetType":"model",
						"author":{
							"aboutMe":"ALL MY MODELS ARE FREE. A portfolio of recombinant design. I combine functional parts, natural forms & humor to explore the dignity of machines and tell new stories.",
							"aboutMeUrl":"https://www.youtube.com/channel/UC4iumRZFtMwIp68q_H7y-DQ/videos?view=0&sort=dd&shelf_id=1",
							"avatar128":"/avatar-redirect/ea26d87b-ba2d-45b4-9e26-61323b186d80/128/",
							"firstName":"Joachim",
							"fullName":"Joachim Bornemann",
							"gravatarHash":"acd124cf9a73257876372090f1bd2c5f",
							"id":"639",
							"lastName":"Bornemann"
						},
						"available_resolutions":[
							512,
							1024,
							2048
						],
						"basePrice":"",
						"bbox_max":[
							0.0838,
							0.1539,
							0.3124
						],
						"bbox_min":[
							-0.1268,
							-0.1542,
							0.0
						],
						"canDownload":true,
						"canDownloadError":true,
						"category":"ai",
						"created":"2021-12-01T02:35:48.336528+01:00",
						"description":"Mecanum wheels for the self-propelled robot platform.in the design of a BORBET B rim.",
						"dictParameters":{
							"addons":true,
							"animated":false,
							"boundBoxMaxX":0.0838,
							"boundBoxMaxY":0.1539,
							"boundBoxMaxZ":0.3124,
							"boundBoxMinX":-0.1268,
							"boundBoxMinY":-0.1542,
							"boundBoxMinZ":0,
							"designer":"BORBET",
							"dimensionX":0.2106,
							"dimensionY":0.3081,
							"dimensionZ":0.3124,
							"engines":[
								"cycles"
							],
							"faceCount":37173,
							"faceCountRender":37173,
							"imageAltTextGen4v":"Detailed Blender 3D model of a mecanum wheel with red accents, resembling a BORBET B rim for robotics applications.",
							"joinBlenderkitDiscounts":true,
							"manifold":false,
							"materials":[
								"Alu_Hell_K\u00f6rnung.005",
								"Stahl.001",
								"Material.009",
								"Material.008",
								"Material.001",
								"AutoLack-Schwarz",
								"AutoLack-ROT",
								"Schrift-Logo"
							],
							"megapixels":71,
							"meshPolyType":"quad_dominant",
							"modelStyle":"realistic",
							"modifiers":[
								"weighted normal"
							],
							"nodeCount":120,
							"objectCount":4,
							"platforms":[
								"windows-x64",
								"macos-arm64",
								"linux-x64",
								"macos-x64",
								"windows-arm64"
							],
							"procedural":false,
							"productionLevel":"finished",
							"purePbr":false,
							"rig":false,
							"sexualizedContent":false,
							"shaders":[
								"principled",
								"add shader",
								"glossy",
								"mix shader"
							],
							"simulation":false,
							"textureCount":5,
							"textureResolutionMax":4096,
							"textureResolutionMin":2048,
							"uv":true
						},
						"displayName":"Mecanum wheel BORBET-B",
						"downloaded":0,
						"files":[
							{
								"created":"2021-12-01T09:57:14.168102+01:00",
								"downloadUrl":"https://www.blenderkit.com/api/v1/downloads/89125/",
								"fileThumbnail":"",
								"fileThumbnailLarge":"",
								"fileType":"blend",
								"fileUploadSize":16336375,
								"filename":"assets/a7ad9d15ee7b4cd2bbdfba5f8063f93a/files/blend_386a9541-72dd-4e53-8c34-f814e33f6c59.blend",
								"modified":"2025-12-22T16:28:59.524839+01:00",
								"resolution":0,
								"thumbnailMiddleUrl":"",
								"thumbnailSmallUrl":"",
								"url":""
							},
							{
								"created":"2022-02-23T05:25:58.751014+01:00",
								"downloadUrl":"https://www.blenderkit.com/api/v1/downloads/105020/",
								"fileThumbnail":"",
								"fileThumbnailLarge":"",
								"fileType":"resolution_0_5K",
								"fileUploadSize":2263276,
								"filename":"assets/a7ad9d15ee7b4cd2bbdfba5f8063f93a/files/resolution_0_5K_7877d7d2-6202-45da-87cd-c15e0a78e495.blend",
								"modified":"2022-04-15T00:54:31.409026+02:00",
								"resolution":0,
								"thumbnailMiddleUrl":"",
								"thumbnailSmallUrl":"",
								"url":""
							},
							{
								"created":"2022-02-23T05:25:55.251822+01:00",
								"downloadUrl":"https://www.blenderkit.com/api/v1/downloads/105019/",
								"fileThumbnail":"",
								"fileThumbnailLarge":"",
								"fileType":"resolution_1K",
								"fileUploadSize":3034801,
								"filename":"assets/a7ad9d15ee7b4cd2bbdfba5f8063f93a/files/resolution_1K_d15b016a-92af-4ce6-9691-4361378330ee.blend",
								"modified":"2022-04-15T00:54:31.975973+02:00",
								"resolution":0,
								"thumbnailMiddleUrl":"",
								"thumbnailSmallUrl":"",
								"url":""
							},
							{
								"created":"2022-02-23T05:25:51.872003+01:00",
								"downloadUrl":"https://www.blenderkit.com/api/v1/downloads/105017/",
								"fileThumbnail":"",
								"fileThumbnailLarge":"",
								"fileType":"resolution_2K",
								"fileUploadSize":7253350,
								"filename":"assets/a7ad9d15ee7b4cd2bbdfba5f8063f93a/files/resolution_2K_fffc3136-ca7c-472c-9ec0-deaaa6499df6.blend",
								"modified":"2022-04-15T00:54:32.441713+02:00",
								"resolution":0,
								"thumbnailMiddleUrl":"",
								"thumbnailSmallUrl":"",
								"url":"https://assets.blenderkit.com/assets/a7ad9d15ee7b4cd2bbdfba5f8063f93a/files/resolution_2K_fffc3136-ca7c-472c-9ec0-deaaa6499df6.blend?verify=1773098190-uLSMU5YSFBJ9J6DHqwlmuUGL%2FI1xt6AwYzpYgm1SEk8%3D",
								"file_name":"C:\\Users\\simpr\\blenderkit_data\\models\\mecanum-wheel-bo_a7ad9d15-ee7b-4cd2-bbdf-ba5f8063f93a\\mecanum-wheel-borbet-b_2K_fffc3136-ca7c-472c-9ec0-deaaa6499df6.blend"
							},
							{
								"created":"2021-12-01T09:56:28.001743+01:00",
								"downloadUrl":"https://www.blenderkit.com/api/v1/downloads/89124/",
								"fileThumbnail":"https://public.blenderkit.com/thumbnails/assets/a7ad9d15ee7b4cd2bbdfba5f8063f93a/files/thumbnail_dab775a2-261d-4261-a004-d86279bb9b5c.jpg.96x96_q85_crop-%2C.jpg",
								"fileThumbnailLarge":"https://public.blenderkit.com/thumbnails/assets/a7ad9d15ee7b4cd2bbdfba5f8063f93a/files/thumbnail_dab775a2-261d-4261-a004-d86279bb9b5c.jpg.1024x1024_q85_crop-%2C.jpg",
								"fileType":"thumbnail",
								"fileUploadSize":2635435,
								"filename":"assets/a7ad9d15ee7b4cd2bbdfba5f8063f93a/files/thumbnail_dab775a2-261d-4261-a004-d86279bb9b5c.jpg",
								"modified":"2025-12-22T17:56:45.448769+01:00",
								"resolution":0,
								"thumbnailMiddleUrl":"https://public.blenderkit.com/thumbnails/assets/a7ad9d15ee7b4cd2bbdfba5f8063f93a/files/thumbnail_dab775a2-261d-4261-a004-d86279bb9b5c.jpg.512x512_q85_crop-%2C.jpg",
								"thumbnailSmallUrl":"https://public.blenderkit.com/thumbnails/assets/a7ad9d15ee7b4cd2bbdfba5f8063f93a/files/thumbnail_dab775a2-261d-4261-a004-d86279bb9b5c.jpg.256x256_q85_crop-%2C.jpg",
								"url":""
							}
						],
						"id":"a7ad9d15-ee7b-4cd2-bbdf-ba5f8063f93a",
						"isForSale":false,
						"isFree":true,
						"isPrivate":false,
						"lastAnimatedThumbnailUpload":null,
						"lastBlendUpload":"2021-12-01T08:57:14.168102+00:00",
						"lastGltfGodotUpload":null,
						"lastGltfUpload":null,
						"lastPhotoThumbnailUpload":null,
						"lastResolutionUpload":"2022-02-23T04:25:58.751014+00:00",
						"lastThumbnailUpload":"2021-12-01T08:56:28.001743+00:00",
						"lastUserInteraction":"2021-12-01T09:57:16.832877+01:00",
						"lastVideoUpload":null,
						"lastZipFileUpload":"",
						"license":"royalty_free",
						"max_resolution":2048,
						"name":"Mecanum wheel BORBET-B",
						"pk":25116,
						"ratingsAverage":{
							"bookmarks":0.971830985915493,
							"quality":9.5,
							"virtualPrice":null,
							"workingHours":12.5
						},
						"ratingsCount":{
							"bookmarks":71,
							"quality":2,
							"virtualPrice":0,
							"workingHours":2
						},
						"ratingsMedian":{
							"bookmarks":1,
							"quality":9.5,
							"virtualPrice":null,
							"workingHours":12.5
						},
						"ratingsSum":{
							"bookmarks":69,
							"quality":19,
							"score":1187.5,
							"virtualPrice":null,
							"workingHours":25
						},
						"score":1187.5,
						"showMarketingLabels":true,
						"sourceAppName":"blender",
						"sourceAppVersion":"2.93.6",
						"tags":[
							"weel",
							"robot"
						],
						"thumbnail":"thumbnail_dab775a2-261d-4261-a004-d86279bb9b5c.jpg.512x512_q85_crop-%2C.jpg.webp",
						"thumbnailLargeUrl":"https://public.blenderkit.com/thumbnails/assets/a7ad9d15ee7b4cd2bbdfba5f8063f93a/files/thumbnail_dab775a2-261d-4261-a004-d86279bb9b5c.jpg.1024x1024_q85_crop-%2C.jpg",
						"thumbnailLargeUrlNonsquared":"https://public.blenderkit.com/thumbnails/assets/a7ad9d15ee7b4cd2bbdfba5f8063f93a/files/thumbnail_dab775a2-261d-4261-a004-d86279bb9b5c.jpg.1024x1024_q85.jpg",
						"thumbnailLargeUrlNonsquaredWebp":"https://public.blenderkit.com/thumbnails/assets/a7ad9d15ee7b4cd2bbdfba5f8063f93a/files/thumbnail_dab775a2-261d-4261-a004-d86279bb9b5c.jpg.1024x1024_q85.jpg.webp?webp_generated=1766446468",
						"thumbnailLargeUrlWebp":"https://public.blenderkit.com/thumbnails/assets/a7ad9d15ee7b4cd2bbdfba5f8063f93a/files/thumbnail_dab775a2-261d-4261-a004-d86279bb9b5c.jpg.1024x1024_q85_crop-%2C.jpg.webp?webp_generated=1766446468",
						"thumbnailMiddleUrl":"https://public.blenderkit.com/thumbnails/assets/a7ad9d15ee7b4cd2bbdfba5f8063f93a/files/thumbnail_dab775a2-261d-4261-a004-d86279bb9b5c.jpg.512x512_q85_crop-%2C.jpg",
						"thumbnailMiddleUrlNonsquared":"https://public.blenderkit.com/thumbnails/assets/a7ad9d15ee7b4cd2bbdfba5f8063f93a/files/thumbnail_dab775a2-261d-4261-a004-d86279bb9b5c.jpg.512x512_q85.jpg",
						"thumbnailMiddleUrlNonsquaredWebp":"https://public.blenderkit.com/thumbnails/assets/a7ad9d15ee7b4cd2bbdfba5f8063f93a/files/thumbnail_dab775a2-261d-4261-a004-d86279bb9b5c.jpg.512x512_q85.jpg.webp?webp_generated=1766446468",
						"thumbnailMiddleUrlWebp":"https://public.blenderkit.com/thumbnails/assets/a7ad9d15ee7b4cd2bbdfba5f8063f93a/files/thumbnail_dab775a2-261d-4261-a004-d86279bb9b5c.jpg.512x512_q85_crop-%2C.jpg.webp?webp_generated=1766446468",
						"thumbnailSmallUrl":"https://public.blenderkit.com/thumbnails/assets/a7ad9d15ee7b4cd2bbdfba5f8063f93a/files/thumbnail_dab775a2-261d-4261-a004-d86279bb9b5c.jpg.256x256_q85_crop-%2C.jpg",
						"thumbnailSmallUrlNonsquared":"https://public.blenderkit.com/thumbnails/assets/a7ad9d15ee7b4cd2bbdfba5f8063f93a/files/thumbnail_dab775a2-261d-4261-a004-d86279bb9b5c.jpg.256x256_q85.jpg",
						"thumbnailSmallUrlNonsquaredWebp":"https://public.blenderkit.com/thumbnails/assets/a7ad9d15ee7b4cd2bbdfba5f8063f93a/files/thumbnail_dab775a2-261d-4261-a004-d86279bb9b5c.jpg.256x256_q85.jpg.webp?webp_generated=1766446468",
						"thumbnailSmallUrlWebp":"https://public.blenderkit.com/thumbnails/assets/a7ad9d15ee7b4cd2bbdfba5f8063f93a/files/thumbnail_dab775a2-261d-4261-a004-d86279bb9b5c.jpg.256x256_q85_crop-%2C.jpg.webp?webp_generated=1766446468",
						"thumbnailXlargeUrl":"https://public.blenderkit.com/thumbnails/assets/a7ad9d15ee7b4cd2bbdfba5f8063f93a/files/thumbnail_dab775a2-261d-4261-a004-d86279bb9b5c.jpg.2048x2048_q85_crop-%2C.jpg",
						"thumbnailXlargeUrlNonsquared":"https://public.blenderkit.com/thumbnails/assets/a7ad9d15ee7b4cd2bbdfba5f8063f93a/files/thumbnail_dab775a2-261d-4261-a004-d86279bb9b5c.jpg.2048x2048_q85.jpg",
						"thumbnailXlargeUrlNonsquaredWebp":"https://public.blenderkit.com/thumbnails/assets/a7ad9d15ee7b4cd2bbdfba5f8063f93a/files/thumbnail_dab775a2-261d-4261-a004-d86279bb9b5c.jpg.2048x2048_q85.jpg.webp?webp_generated=1766446468",
						"thumbnailXlargeUrlWebp":"https://public.blenderkit.com/thumbnails/assets/a7ad9d15ee7b4cd2bbdfba5f8063f93a/files/thumbnail_dab775a2-261d-4261-a004-d86279bb9b5c.jpg.2048x2048_q85_crop-%2C.jpg.webp?webp_generated=1766446468",
						"thumbnail_small":"thumbnail_dab775a2-261d-4261-a004-d86279bb9b5c.jpg.256x256_q85_crop-%2C.jpg.webp",
						"tooltip_data":{
							"aname":"Mecanum wheel BORBET-B",
							"author_text":"by Joachim Bornemann",
							"price_background":[
								0,
								0,
								0,
								0
							],
							"price_color":[
								1.0,
								1.0,
								1.0,
								0.9
							],
							"price_text":"",
							"quality":"10"
						},
						"url":"https://www.blenderkit.com/api/v1/assets/a7ad9d15-ee7b-4cd2-bbdf-ba5f8063f93a/",
						"verificationStatus":"validated",
						"versionNumber":1,
						"videoLink":"",
						"webpGeneratedTimestamp":1766446468,
						"resolution":"resolution_2K"
					}
				},
				"uuid":"33483843-d91a-4e77-937c-b034d7b01bc9",
				"assets reported":{}
			},
			"name":"Scene",
			"nodes":[
				0,
				1
			]
		}
	],
	"nodes":[
		{
			"mesh":0,
			"name":"tripo_node_bb289528-43b9-44f1-a765-6e4e439b3744",
			"scale":[
				11.303675651550293,
				11.303675651550293,
				11.303675651550293
			],
			"translation":[
				-4.1269941329956055,
				3.775912284851074,
				-5.596831798553467
			]
		},
		{
			"mesh":1,
			"name":"tripo_node_bb289528-43b9-44f1-a765-6e4e439b3744.001",
			"scale":[
				11.303675651550293,
				11.303675651550293,
				11.303675651550293
			],
			"translation":[
				-4.020403861999512,
				3.734142541885376,
				6.616737365722656
			]
		}
	],
	"materials":[
		{
			"name":"tripo_mat_bb289528-43b9-44f1-a765-6e4e439b3744",
			"normalTexture":{
				"index":0
			},
			"pbrMetallicRoughness":{
				"baseColorTexture":{
					"index":1
				},
				"metallicRoughnessTexture":{
					"index":2
				}
			}
		}
	],
	"meshes":[
		{
			"name":"tripo_mesh_bb289528-43b9-44f1-a765-6e4e439b3744",
			"primitives":[
				{
					"attributes":{
						"POSITION":0,
						"NORMAL":1,
						"TEXCOORD_0":2
					},
					"indices":3,
					"material":0
				}
			]
		},
		{
			"name":"tripo_mesh_bb289528-43b9-44f1-a765-6e4e439b3744.001",
			"primitives":[
				{
					"attributes":{
						"POSITION":4,
						"NORMAL":5,
						"TEXCOORD_0":6
					},
					"indices":3,
					"material":0
				}
			]
		}
	],
	"textures":[
		{
			"sampler":0,
			"source":0
		},
		{
			"sampler":0,
			"source":1
		},
		{
			"sampler":0,
			"source":2
		}
	],
	"images":[
		{
			"mimeType":"image/jpeg",
			"name":"futuristicmachine3dmodel_normal",
			"uri":"futuristicmachine3dmodel_normal.jpg"
		},
		{
			"mimeType":"image/jpeg",
			"name":"futuristicmachine3dmodel_basecolor",
			"uri":"futuristicmachine3dmodel_basecolor.jpg"
		},
		{
			"mimeType":"image/jpeg",
			"name":"futuristicmachine3dmodel_rm",
			"uri":"futuristicmachine3dmodel_rm.jpg"
		}
	],
	"accessors":[
		{
			"bufferView":0,
			"componentType":5126,
			"count":1487202,
			"max":[
				0.30963134765625,
				0.408721923828125,
				0.5
			],
			"min":[
				-0.309661865234375,
				-0.40875244140625,
				-0.5
			],
			"type":"VEC3"
		},
		{
			"bufferView":1,
			"componentType":5126,
			"count":1487202,
			"type":"VEC3"
		},
		{
			"bufferView":2,
			"componentType":5126,
			"count":1487202,
			"type":"VEC2"
		},
		{
			"bufferView":3,
			"componentType":5125,
			"count":1503738,
			"type":"SCALAR"
		},
		{
			"bufferView":4,
			"componentType":5126,
			"count":1487202,
			"max":[
				0.30963134765625,
				0.408721923828125,
				0.5
			],
			"min":[
				-0.309661865234375,
				-0.40875244140625,
				-0.5
			],
			"type":"VEC3"
		},
		{
			"bufferView":5,
			"componentType":5126,
			"count":1487202,
			"type":"VEC3"
		},
		{
			"bufferView":6,
			"componentType":5126,
			"count":1487202,
			"type":"VEC2"
		}
	],
	"bufferViews":[
		{
			"buffer":0,
			"byteLength":17846424,
			"byteOffset":0,
			"target":34962
		},
		{
			"buffer":0,
			"byteLength":17846424,
			"byteOffset":17846424,
			"target":34962
		},
		{
			"buffer":0,
			"byteLength":11897616,
			"byteOffset":35692848,
			"target":34962
		},
		{
			"buffer":0,
			"byteLength":6014952,
			"byteOffset":47590464,
			"target":34963
		},
		{
			"buffer":0,
			"byteLength":17846424,
			"byteOffset":53605416,
			"target":34962
		},
		{
			"buffer":0,
			"byteLength":17846424,
			"byteOffset":71451840,
			"target":34962
		},
		{
			"buffer":0,
			"byteLength":11897616,
			"byteOffset":89298264,
			"target":34962
		}
	],
	"samplers":[
		{
			"magFilter":9729,
			"minFilter":9987
		}
	],
	"buffers":[
		{
			"byteLength":101195880,
			"uri":"corgemont-engines-colossus-relics.bin"
		}
	]
}
