{
	"asset":
	{
		"version": "2.0",
		"generator": "Unreal Engine 5.4.4"
	},
	"scene": 0,
	"accessors": [
		{
			"bufferView": 0,
			"count": 8,
			"type": "MAT4",
			"componentType": 5126
		},
		{
			"bufferView": 1,
			"count": 18246,
			"type": "SCALAR",
			"componentType": 5123
		},
		{
			"bufferView": 2,
			"count": 6514,
			"type": "VEC3",
			"componentType": 5126,
			"min": [ -0.0522701889, -0.119388632, -0.40043658 ],
			"max": [ 0.0524110049, 0.183690578, 0.475400001 ]
		},
		{
			"bufferView": 3,
			"count": 6514,
			"type": "VEC3",
			"componentType": 5126
		},
		{
			"bufferView": 4,
			"count": 6514,
			"type": "VEC4",
			"componentType": 5126
		},
		{
			"bufferView": 5,
			"count": 6514,
			"type": "VEC2",
			"componentType": 5126
		},
		{
			"bufferView": 6,
			"count": 6514,
			"type": "VEC2",
			"componentType": 5126
		},
		{
			"bufferView": 7,
			"count": 6514,
			"type": "VEC4",
			"componentType": 5121
		},
		{
			"bufferView": 8,
			"count": 6514,
			"type": "VEC4",
			"componentType": 5121,
			"normalized": true
		},
		{
			"bufferView": 9,
			"count": 6514,
			"type": "VEC4",
			"componentType": 5121
		},
		{
			"bufferView": 10,
			"count": 6514,
			"type": "VEC4",
			"componentType": 5121,
			"normalized": true
		},
		{
			"bufferView": 11,
			"count": 438,
			"type": "SCALAR",
			"componentType": 5121
		},
		{
			"bufferView": 12,
			"count": 230,
			"type": "VEC3",
			"componentType": 5126,
			"min": [ -0.045083303, 0.0800586045, -0.0361226946 ],
			"max": [ 0.0453084074, 0.130514532, 0.451806664 ]
		},
		{
			"bufferView": 13,
			"count": 230,
			"type": "VEC3",
			"componentType": 5126
		},
		{
			"bufferView": 14,
			"count": 230,
			"type": "VEC4",
			"componentType": 5126
		},
		{
			"bufferView": 15,
			"count": 230,
			"type": "VEC2",
			"componentType": 5126
		},
		{
			"bufferView": 16,
			"count": 230,
			"type": "VEC2",
			"componentType": 5126
		},
		{
			"bufferView": 17,
			"count": 230,
			"type": "VEC4",
			"componentType": 5121
		},
		{
			"bufferView": 18,
			"count": 230,
			"type": "VEC4",
			"componentType": 5121,
			"normalized": true
		},
		{
			"bufferView": 19,
			"count": 230,
			"type": "VEC4",
			"componentType": 5121
		},
		{
			"bufferView": 20,
			"count": 230,
			"type": "VEC4",
			"componentType": 5121,
			"normalized": true
		}
	],
	"buffers": [
		{
			"uri": "SK_TelekinesisGun.bin",
			"byteLength": 523012
		}
	],
	"bufferViews": [
		{
			"buffer": 0,
			"byteLength": 512
		},
		{
			"buffer": 0,
			"byteLength": 36492,
			"byteOffset": 512,
			"target": 34963
		},
		{
			"buffer": 0,
			"byteLength": 78168,
			"byteOffset": 37004,
			"target": 34962
		},
		{
			"buffer": 0,
			"byteLength": 78168,
			"byteOffset": 115172,
			"target": 34962
		},
		{
			"buffer": 0,
			"byteLength": 104224,
			"byteOffset": 193340,
			"target": 34962
		},
		{
			"buffer": 0,
			"byteLength": 52112,
			"byteOffset": 297564,
			"target": 34962
		},
		{
			"buffer": 0,
			"byteLength": 52112,
			"byteOffset": 349676,
			"target": 34962
		},
		{
			"buffer": 0,
			"byteLength": 26056,
			"byteOffset": 401788,
			"target": 34962
		},
		{
			"buffer": 0,
			"byteLength": 26056,
			"byteOffset": 427844,
			"target": 34962
		},
		{
			"buffer": 0,
			"byteLength": 26056,
			"byteOffset": 453900,
			"target": 34962
		},
		{
			"buffer": 0,
			"byteLength": 26056,
			"byteOffset": 479956,
			"target": 34962
		},
		{
			"buffer": 0,
			"byteLength": 438,
			"byteOffset": 506012,
			"target": 34963
		},
		{
			"buffer": 0,
			"byteLength": 2760,
			"byteOffset": 506452,
			"target": 34962
		},
		{
			"buffer": 0,
			"byteLength": 2760,
			"byteOffset": 509212,
			"target": 34962
		},
		{
			"buffer": 0,
			"byteLength": 3680,
			"byteOffset": 511972,
			"target": 34962
		},
		{
			"buffer": 0,
			"byteLength": 1840,
			"byteOffset": 515652,
			"target": 34962
		},
		{
			"buffer": 0,
			"byteLength": 1840,
			"byteOffset": 517492,
			"target": 34962
		},
		{
			"buffer": 0,
			"byteLength": 920,
			"byteOffset": 519332,
			"target": 34962
		},
		{
			"buffer": 0,
			"byteLength": 920,
			"byteOffset": 520252,
			"target": 34962
		},
		{
			"buffer": 0,
			"byteLength": 920,
			"byteOffset": 521172,
			"target": 34962
		},
		{
			"buffer": 0,
			"byteLength": 920,
			"byteOffset": 522092,
			"target": 34962
		}
	],
	"images": [
		{
			"uri": "M_TelekinesisGun_BaseColor.png"
		},
		{
			"uri": "M_TelekinesisGun_MetallicRoughness.png"
		},
		{
			"uri": "M_TelekinesisGun_Normal.png"
		}
	],
	"materials": [
		{
			"name": "M_TelekinesisGun",
			"pbrMetallicRoughness":
			{
				"baseColorTexture":
				{
					"index": 0
				},
				"metallicRoughnessTexture":
				{
					"index": 1
				}
			},
			"normalTexture":
			{
				"index": 2
			},
			"alphaMode": "MASK",
			"alphaCutoff": 0.333299994,
			"extensions":
			{
				"KHR_materials_specular":
				{
					"specularFactor": 0.501960814
				}
			}
		},
		{
			"name": "MI_TelekenesisGunLight",
			"pbrMetallicRoughness":
			{
				"baseColorFactor": [ 0.221533, 0.839603007, 1, 1 ],
				"metallicFactor": 0,
				"roughnessFactor": 0.5
			}
		}
	],
	"meshes": [
		{
			"name": "SK_TelekinesisGun",
			"primitives": [
				{
					"attributes":
					{
						"POSITION": 2,
						"NORMAL": 3,
						"TANGENT": 4,
						"TEXCOORD_0": 5,
						"TEXCOORD_1": 6,
						"JOINTS_0": 7,
						"JOINTS_1": 9,
						"WEIGHTS_0": 8,
						"WEIGHTS_1": 10
					},
					"indices": 1,
					"material": 0
				},
				{
					"attributes":
					{
						"POSITION": 12,
						"NORMAL": 13,
						"TANGENT": 14,
						"TEXCOORD_0": 15,
						"TEXCOORD_1": 16,
						"JOINTS_0": 17,
						"JOINTS_1": 19,
						"WEIGHTS_0": 18,
						"WEIGHTS_1": 20
					},
					"indices": 11,
					"material": 1
				}
			]
		}
	],
	"nodes": [
		{
			"skin": 0,
			"mesh": 0,
			"children": [ 1 ]
		},
		{
			"name": "root",
			"translation": [ 0, -0.115439869, -0.158709899 ],
			"rotation": [ 0.360080868, -0.360080868, 0.608557105, 0.608557105 ],
			"scale": [ 0.389999986, 0.389999986, 0.389999986 ],
			"children": [ 2 ]
		},
		{
			"name": "joint2",
			"translation": [ 1.08069909, 2.39963402e-16, 3.5527136e-17 ],
			"children": [ 3, 5, 7 ]
		},
		{
			"name": "joint3",
			"rotation": [ -0.175699234, 0.175699234, 0.684930503, -0.684930503 ],
			"children": [ 4 ]
		},
		{
			"name": "joint4",
			"translation": [ -0.109767996, 0.145474017, 0.0123078115 ],
			"rotation": [ 5.37138746e-34, 0.0871557444, -6.13952398e-33, -0.99619472 ]
		},
		{
			"name": "joint5",
			"rotation": [ -0.684930503, -0.684930503, -0.175699234, -0.175699234 ],
			"children": [ 6 ]
		},
		{
			"name": "joint6",
			"translation": [ -0.109323606, 0.145198479, -0.0123077761 ],
			"rotation": [ 2.97304892e-33, -0.0871557444, 6.93382152e-32, -0.99619472 ]
		},
		{
			"name": "joint7",
			"rotation": [ -0.684930503, -0.684930503, -0.175699234, -0.175699234 ],
			"children": [ 8 ]
		},
		{
			"name": "joint8",
			"translation": [ 5.63933609e-18, 0.145199999, 0.0814341307 ]
		}
	],
	"samplers": [
		{
			"minFilter": 9987,
			"magFilter": 9729
		}
	],
	"scenes": [
		{
			"nodes": [ 0 ]
		}
	],
	"skins": [
		{
			"name": "SK_TelekinesisGun",
			"inverseBindMatrices": 0,
			"skeleton": 0,
			"joints": [ 1, 2, 3, 4, 5, 6, 7, 8 ]
		}
	],
	"textures": [
		{
			"name": "M_TelekinesisGun_BaseColor",
			"sampler": 0,
			"source": 0
		},
		{
			"name": "M_TelekinesisGun_MetallicRoughness",
			"sampler": 0,
			"source": 1
		},
		{
			"name": "M_TelekinesisGun_Normal",
			"sampler": 0,
			"source": 2
		}
	],
	"extensionsUsed": [
		"KHR_materials_specular"
	]
}